<svg width="173" height="207" viewBox="0 0 173 207" fill="none" xmlns="http://www.w3.org/2000/svg">
<path d="M120 60.9174C120 84.0678 100.009 102.835 75.3488 102.835C50.6887 102.835 30.6977 84.0678 30.6977 60.9174C30.6977 37.7671 50.6887 19 75.3488 19C100.009 19 120 37.7671 120 60.9174Z" fill="#FF406F"/>
<path d="M69.8125 121.375C68.7812 120.344 68.0312 119.359 67.5625 118.422C67.1875 117.391 66.9062 116.406 66.7188 115.469C66.5312 114.438 66.5312 113.406 66.7188 112.375C67.0938 111.062 67.6562 109.844 68.4062 108.719C69.0625 107.688 69.9531 106.656 71.0781 105.625C72.2031 104.5 73.7031 103.469 75.5781 102.531C76.7969 99.5312 77.875 96.3906 78.8125 93.1094C79.8438 89.7344 80.7344 86.6875 81.4844 83.9688C82.3281 80.7812 83.0781 77.5938 83.7344 74.4062C86.0781 66.4375 87.2969 59.9688 87.3906 55C87.4844 49.9375 87.3906 46.6094 87.1094 45.0156C87.0156 44.3594 86.9219 43.7031 86.8281 43.0469C86.6406 42.4844 86.4531 41.875 86.2656 41.2188C86.1719 40.4687 86.0312 39.7656 85.8438 39.1094C86.875 38.5469 87.7656 38.0781 88.5156 37.7031C89.3594 37.3281 90.0625 37.0469 90.625 36.8594C91.2812 36.5781 91.8906 36.3906 92.4531 36.2969C94.6094 35.8281 96.625 35.5938 98.5 35.5938C100.469 35.5 101.547 35.8281 101.734 36.5781C101.828 37.0469 101.922 37.8906 102.016 39.1094C102.203 40.3281 102.297 41.8281 102.297 43.6094C102.297 45.3906 102.156 47.4062 101.875 49.6562C101.594 51.8125 101.078 54.1094 100.328 56.5469C99.6719 58.7031 98.7812 61.7031 97.6562 65.5469C96.625 68.8281 95.2656 73.2344 93.5781 78.7656C91.8906 84.2031 89.6875 91.1875 86.9688 99.7188C89.7812 98.7812 92.875 97.8906 96.25 97.0469C99.625 96.2031 103.047 95.5 106.516 94.9375C110.078 94.375 113.594 93.9531 117.062 93.6719C120.625 93.3906 123.906 93.3438 126.906 93.5312C127.469 93.5312 127.844 93.8125 128.031 94.375C128.312 94.8438 128.312 95.3594 128.031 95.9219C127.844 96.4844 127.328 97.0469 126.484 97.6094C125.734 98.0781 124.609 98.3594 123.109 98.4531C121.234 98.6406 119.172 98.875 116.922 99.1562C114.672 99.3438 112.328 99.6719 109.891 100.141C107.547 100.516 105.203 101.031 102.859 101.688C100.516 102.25 98.3125 102.953 96.25 103.797C94.6562 104.359 93.0625 104.922 91.4688 105.484C90.1562 105.953 88.75 106.516 87.25 107.172C85.8438 107.734 84.6719 108.25 83.7344 108.719L80.5 118.984C85.9375 122.828 90.1094 126.766 93.0156 130.797C96.0156 134.828 98.1719 138.531 99.4844 141.906C101.078 145.844 101.969 149.688 102.156 153.438C102.156 157.562 101.547 161.688 100.328 165.812C99.1094 170.031 97.4688 174.016 95.4062 177.766C93.4375 181.609 91.0938 185.172 88.375 188.453C85.75 191.734 82.9375 194.547 79.9375 196.891C77.0312 199.234 74.0312 201.016 70.9375 202.234C67.9375 203.453 65.0781 203.922 62.3594 203.641C60.3906 203.453 58.75 202.797 57.4375 201.672C56.125 200.641 55.1406 199.281 54.4844 197.594C53.8281 196 53.4531 194.172 53.3594 192.109C53.2656 190.141 53.4531 188.172 53.9219 186.203C54.2969 184.234 55.0938 180.578 56.3125 175.234C57.3438 170.734 58.9375 164.172 61.0938 155.547C63.25 147.016 66.1562 135.625 69.8125 121.375ZM78.1094 127.984C76.7969 132.672 75.625 136.984 74.5938 140.922C73.6562 144.859 72.8594 148.328 72.2031 151.328C71.3594 154.797 70.7031 157.938 70.2344 160.75C69.3906 164.312 68.5 167.828 67.5625 171.297C66.7188 174.766 66.0625 177.859 65.5938 180.578C65.0312 183.391 64.7969 185.641 64.8906 187.328C64.9844 189.016 65.5938 189.859 66.7188 189.859C69.4375 190.047 72.25 188.969 75.1562 186.625C78.1562 184.375 80.875 181.469 83.3125 177.906C85.75 174.438 87.7656 170.641 89.3594 166.516C90.9531 162.484 91.75 158.734 91.75 155.266C91.75 151.422 91.1406 147.625 89.9219 143.875C89.0781 141.906 88.0938 139.984 86.9688 138.109C85.9375 136.516 84.6719 134.828 83.1719 133.047C81.7656 131.172 80.0781 129.484 78.1094 127.984ZM150.812 84.25C152.031 83.3125 153.203 82.6094 154.328 82.1406C155.547 81.5781 156.625 81.2031 157.562 81.0156C158.594 80.7344 159.625 80.6406 160.656 80.7344C163.188 80.9219 164.734 81.7188 165.297 83.125C165.953 84.5312 166.047 86.7812 165.578 89.875C165.297 91.4688 164.734 93.4844 163.891 95.9219C163.047 98.3594 162.062 101.359 160.938 104.922C159.812 108.391 158.594 112.375 157.281 116.875C156.062 121.375 154.891 126.438 153.766 132.062C152.641 136.656 151.422 141.953 150.109 147.953C148.984 153.203 147.625 159.531 146.031 166.938C144.531 174.344 142.891 182.828 141.109 192.391C140.641 194.734 139.609 196.094 138.016 196.469C136.516 196.844 134.922 196.656 133.234 195.906C132.578 195.531 131.969 195.109 131.406 194.641C130.938 194.172 130.422 193.609 129.859 192.953C129.297 192.391 128.828 191.594 128.453 190.562C130.609 182.688 132.484 175.516 134.078 169.047C135.766 162.578 137.266 156.953 138.578 152.172C139.984 146.641 141.297 141.672 142.516 137.266C142.984 135.297 143.406 133.375 143.781 131.5C144.25 129.531 144.719 127.609 145.188 125.734C143.969 127.703 142.656 129.578 141.25 131.359C139.844 133.141 138.297 134.688 136.609 136C134.922 137.312 133.094 138.297 131.125 138.953C129.25 139.703 127.281 139.938 125.219 139.656C120.156 139 116.547 137.125 114.391 134.031C112.328 130.938 111.438 126.906 111.719 121.938C111.812 119.969 112.094 117.812 112.562 115.469C113.031 113.125 113.547 110.875 114.109 108.719C114.672 106.562 115.188 104.641 115.656 102.953C116.219 101.172 116.641 99.9062 116.922 99.1562C118.047 95.5938 118.844 92.5469 119.312 90.0156C119.875 87.4844 119.5 85.375 118.188 83.6875C119.5 82.8438 120.719 82.2812 121.844 82C123.062 81.625 124.141 81.3438 125.078 81.1562C126.109 81.0625 127.141 81.0625 128.172 81.1562C130.703 81.5312 132.156 82.4688 132.531 83.9688C133 85.4688 132.859 87.7188 132.109 90.7188C131.734 92.3125 131.125 94.375 130.281 96.9062C129.438 99.3438 128.547 101.875 127.609 104.5C126.672 107.125 125.828 109.562 125.078 111.812C124.328 113.969 123.906 115.516 123.812 116.453C122.969 120.672 122.922 123.953 123.672 126.297C124.422 128.547 126.062 129.672 128.594 129.672C129.812 129.672 131.172 129.156 132.672 128.125C134.172 127 135.672 125.547 137.172 123.766C138.766 121.984 140.312 119.969 141.812 117.719C143.312 115.375 144.672 113.031 145.891 110.688C147.203 108.344 148.328 106.047 149.266 103.797C150.297 101.547 151.047 99.5312 151.516 97.75C152.172 94.2812 152.594 91.5625 152.781 89.5938C152.969 87.625 152.312 85.8438 150.812 84.25Z" fill="white"/>
</svg>
